<svg width="800" height="450" xmlns="http://www.w3.org/2000/svg">
  <defs>
    <linearGradient id="soundWave" x1="0%" y1="50%" x2="100%" y2="50%">
      <stop offset="0%" style="stop-color:#00F5FF;stop-opacity:1" />
      <stop offset="50%" style="stop-color:#FF1744;stop-opacity:1" />
      <stop offset="100%" style="stop-color:#00F5FF;stop-opacity:1" />
    </linearGradient>
  </defs>
  <rect width="800" height="450" fill="#0a0a0a"/>
  <!-- Sound wave visualization bars -->
  <rect x="50" y="200" width="8" height="50" fill="url(#soundWave)" opacity="0.8"/>
  <rect x="70" y="150" width="8" height="150" fill="url(#soundWave)" opacity="0.9"/>
  <rect x="90" y="180" width="8" height="90" fill="url(#soundWave)" opacity="0.7"/>
  <rect x="110" y="120" width="8" height="210" fill="url(#soundWave)" opacity="1"/>
  <rect x="130" y="160" width="8" height="130" fill="url(#soundWave)" opacity="0.8"/>
  <rect x="150" y="100" width="8" height="250" fill="url(#soundWave)" opacity="0.9"/>
  <rect x="170" y="140" width="8" height="170" fill="url(#soundWave)" opacity="0.7"/>
  <rect x="190" y="190" width="8" height="70" fill="url(#soundWave)" opacity="0.8"/>
  
  <!-- More bars across the screen -->
  <rect x="300" y="180" width="8" height="90" fill="url(#soundWave)" opacity="0.6"/>
  <rect x="320" y="150" width="8" height="150" fill="url(#soundWave)" opacity="0.8"/>
  <rect x="340" y="120" width="8" height="210" fill="url(#soundWave)" opacity="0.9"/>
  <rect x="360" y="200" width="8" height="50" fill="url(#soundWave)" opacity="0.7"/>
  <rect x="380" y="100" width="8" height="250" fill="url(#soundWave)" opacity="1"/>
  <rect x="400" y="160" width="8" height="130" fill="url(#soundWave)" opacity="0.8"/>
  
  <rect x="500" y="170" width="8" height="110" fill="url(#soundWave)" opacity="0.7"/>
  <rect x="520" y="130" width="8" height="190" fill="url(#soundWave)" opacity="0.9"/>
  <rect x="540" y="200" width="8" height="50" fill="url(#soundWave)" opacity="0.6"/>
  <rect x="560" y="110" width="8" height="230" fill="url(#soundWave)" opacity="0.8"/>
  <rect x="580" y="180" width="8" height="90" fill="url(#soundWave)" opacity="0.7"/>
  <rect x="600" y="150" width="8" height="150" fill="url(#soundWave)" opacity="0.9"/>
  <rect x="620" y="190" width="8" height="70" fill="url(#soundWave)" opacity="0.8"/>
  <rect x="640" y="140" width="8" height="170" fill="url(#soundWave)" opacity="0.6"/>
  
  <text x="400" y="380" font-family="Arial, sans-serif" font-size="18" fill="#E5E7EB" text-anchor="middle">Audio Visualizer</text>
</svg>
