<svg width="800" height="450" xmlns="http://www.w3.org/2000/svg">
  <rect width="800" height="450" fill="#1e1e1e"/>
  
  <!-- Grid pattern representing cellular automata -->
  <g fill="#00ff00" opacity="0.8">
    <!-- Active cells -->
    <rect x="100" y="100" width="10" height="10"/>
    <rect x="120" y="100" width="10" height="10"/>
    <rect x="110" y="110" width="10" height="10"/>
    <rect x="120" y="110" width="10" height="10"/>
    <rect x="110" y="120" width="10" height="10"/>
    
    <!-- Glider pattern -->
    <rect x="200" y="150" width="10" height="10"/>
    <rect x="220" y="150" width="10" height="10"/>
    <rect x="230" y="150" width="10" height="10"/>
    <rect x="230" y="140" width="10" height="10"/>
    <rect x="220" y="130" width="10" height="10"/>
    
    <!-- Block pattern -->
    <rect x="300" y="200" width="10" height="10"/>
    <rect x="310" y="200" width="10" height="10"/>
    <rect x="300" y="210" width="10" height="10"/>
    <rect x="310" y="210" width="10" height="10"/>
    
    <!-- Random active cells -->
    <rect x="450" y="120" width="10" height="10"/>
    <rect x="460" y="130" width="10" height="10"/>
    <rect x="470" y="120" width="10" height="10"/>
    <rect x="480" y="140" width="10" height="10"/>
    <rect x="490" y="130" width="10" height="10"/>
    
    <rect x="550" y="180" width="10" height="10"/>
    <rect x="560" y="180" width="10" height="10"/>
    <rect x="570" y="180" width="10" height="10"/>
    <rect x="560" y="190" width="10" height="10"/>
    
    <rect x="600" y="250" width="10" height="10"/>
    <rect x="610" y="250" width="10" height="10"/>
    <rect x="620" y="250" width="10" height="10"/>
    <rect x="610" y="240" width="10" height="10"/>
    <rect x="610" y="260" width="10" height="10"/>
  </g>
  
  <!-- Grid lines -->
  <g stroke="#333" stroke-width="0.5" opacity="0.3">
    <!-- Vertical lines -->
    <line x1="50" y1="50" x2="50" y2="350"/>
    <line x1="100" y1="50" x2="100" y2="350"/>
    <line x1="150" y1="50" x2="150" y2="350"/>
    <line x1="200" y1="50" x2="200" y2="350"/>
    <line x1="250" y1="50" x2="250" y2="350"/>
    <line x1="300" y1="50" x2="300" y2="350"/>
    <line x1="350" y1="50" x2="350" y2="350"/>
    <line x1="400" y1="50" x2="400" y2="350"/>
    <line x1="450" y1="50" x2="450" y2="350"/>
    <line x1="500" y1="50" x2="500" y2="350"/>
    <line x1="550" y1="50" x2="550" y2="350"/>
    <line x1="600" y1="50" x2="600" y2="350"/>
    <line x1="650" y1="50" x2="650" y2="350"/>
    <line x1="700" y1="50" x2="700" y2="350"/>
    <line x1="750" y1="50" x2="750" y2="350"/>
    
    <!-- Horizontal lines -->
    <line x1="50" y1="50" x2="750" y2="50"/>
    <line x1="50" y1="100" x2="750" y2="100"/>
    <line x1="50" y1="150" x2="750" y2="150"/>
    <line x1="50" y1="200" x2="750" y2="200"/>
    <line x1="50" y1="250" x2="750" y2="250"/>
    <line x1="50" y1="300" x2="750" y2="300"/>
    <line x1="50" y1="350" x2="750" y2="350"/>
  </g>
  
  <text x="400" y="400" font-family="Arial, sans-serif" font-size="18" fill="#E5E7EB" text-anchor="middle">Cellular Automata</text>
</svg>
