<svg viewBox="0 0 400 300" xmlns="http://www.w3.org/2000/svg">
  <!-- Sky gradient background -->
  <defs>
    <linearGradient id="skyGradient" x1="0%" y1="0%" x2="0%" y2="100%">
      <stop offset="0%" style="stop-color:#87ceeb;stop-opacity:1" />
      <stop offset="100%" style="stop-color:#e0f6ff;stop-opacity:1" />
    </linearGradient>
  </defs>
  
  <!-- Background -->
  <rect width="400" height="300" fill="url(#skyGradient)"/>
  
  <!-- Cloud 1 - Large cloud on left -->
  <g opacity="0.9">
    <circle cx="80" cy="120" r="35" fill="white"/>
    <circle cx="115" cy="115" r="28" fill="white"/>
    <circle cx="140" cy="125" r="32" fill="white"/>
    <circle cx="165" cy="120" r="25" fill="white"/>
    <circle cx="120" cy="140" r="30" fill="white"/>
    <circle cx="145" cy="145" r="25" fill="white"/>
  </g>
  
  <!-- Cloud 2 - Medium cloud in center -->
  <g opacity="0.8">
    <circle cx="220" cy="80" r="25" fill="white"/>
    <circle cx="245" cy="75" r="22" fill="white"/>
    <circle cx="265" cy="85" r="20" fill="white"/>
    <circle cx="240" cy="95" r="24" fill="white"/>
  </g>
  
  <!-- Cloud 3 - Small cloud on right -->
  <g opacity="0.7">
    <circle cx="320" cy="160" r="18" fill="white"/>
    <circle cx="340" cy="155" r="16" fill="white"/>
    <circle cx="355" cy="165" r="14" fill="white"/>
    <circle cx="335" cy="175" r="15" fill="white"/>
  </g>
  
  <!-- Cloud 4 - Another medium cloud -->
  <g opacity="0.85">
    <circle cx="290" cy="200" r="22" fill="white"/>
    <circle cx="315" cy="195" r="20" fill="white"/>
    <circle cx="335" cy="205" r="18" fill="white"/>
    <circle cx="310" cy="215" r="19" fill="white"/>
  </g>
  
  <!-- Small floating clouds -->
  <g opacity="0.6">
    <circle cx="50" cy="60" r="12" fill="white"/>
    <circle cx="65" cy="55" r="10" fill="white"/>
    <circle cx="75" cy="65" r="8" fill="white"/>
  </g>
  
  <g opacity="0.65">
    <circle cx="370" cy="90" r="10" fill="white"/>
    <circle cx="380" cy="85" r="8" fill="white"/>
    <circle cx="385" cy="95" r="6" fill="white"/>
  </g>
</svg>
