<svg viewBox="0 0 100 100" xmlns="http://www.w3.org/2000/svg">
  <defs>
    <linearGradient id="rainGradient" x1="0%" y1="0%" x2="0%" y2="100%">
      <stop offset="0%" style="stop-color:#87CEEB;stop-opacity:1" />
      <stop offset="100%" style="stop-color:#4682B4;stop-opacity:1" />
    </linearGradient>
  </defs>
  
  <!-- Dark cloudy background -->
  <rect width="100" height="100" fill="#2C3E50"/>
  
  <!-- Rain drops -->
  <g stroke="url(#rainGradient)" stroke-width="1.5" stroke-linecap="round">
    <!-- First row of drops -->
    <line x1="15" y1="20" x2="15" y2="35"/>
    <line x1="25" y1="15" x2="25" y2="32"/>
    <line x1="35" y1="25" x2="35" y2="38"/>
    <line x1="45" y1="18" x2="45" y2="33"/>
    <line x1="55" y1="22" x2="55" y2="40"/>
    <line x1="65" y1="16" x2="65" y2="31"/>
    <line x1="75" y1="20" x2="75" y2="37"/>
    <line x1="85" y1="14" x2="85" y2="29"/>
    
    <!-- Second row of drops -->
    <line x1="10" y1="40" x2="10" y2="58"/>
    <line x1="20" y1="45" x2="20" y2="62"/>
    <line x1="30" y1="38" x2="30" y2="55"/>
    <line x1="40" y1="42" x2="40" y2="60"/>
    <line x1="50" y1="35" x2="50" y2="52"/>
    <line x1="60" y1="41" x2="60" y2="59"/>
    <line x1="70" y1="37" x2="70" y2="54"/>
    <line x1="80" y1="43" x2="80" y2="61"/>
    <line x1="90" y1="39" x2="90" y2="56"/>
    
    <!-- Third row of drops -->
    <line x1="12" y1="65" x2="12" y2="82"/>
    <line x1="22" y1="60" x2="22" y2="78"/>
    <line x1="32" y1="68" x2="32" y2="85"/>
    <line x1="42" y1="62" x2="42" y2="79"/>
    <line x1="52" y1="66" x2="52" y2="84"/>
    <line x1="62" y1="58" x2="62" y2="75"/>
    <line x1="72" y1="64" x2="72" y2="82"/>
    <line x1="82" y1="61" x2="82" y2="78"/>
    
    <!-- Fourth row of drops -->
    <line x1="18" y1="80" x2="18" y2="95"/>
    <line x1="28" y1="75" x2="28" y2="92"/>
    <line x1="38" y1="82" x2="38" y2="98"/>
    <line x1="48" y1="78" x2="48" y2="95"/>
    <line x1="58" y1="81" x2="58" y2="98"/>
    <line x1="68" y1="76" x2="68" y2="93"/>
    <line x1="78" y1="83" x2="78" y2="98"/>
    <line x1="88" y1="79" x2="88" y2="96"/>
  </g>
</svg>